<?xml version="1.0" encoding="utf-8"?>
<!-- Generator: Adobe Illustrator 26.5.0, SVG Export Plug-In . SVG Version: 6.00 Build 0)  -->
<svg version="1.1" id="Layer_1" xmlns="http://www.w3.org/2000/svg" xmlns:xlink="http://www.w3.org/1999/xlink" x="0px" y="0px"
	 viewBox="0 0 5000 5000" style="enable-background:new 0 0 5000 5000;" xml:space="preserve">
<style type="text/css">
	.st0{fill:#FFFFFF;}
	.st1{fill:#673AB7;}
	.st2{fill:#63BC46;}
</style>
<g id="Layer_x5F_1">
	<g id="_433460920752">
		<g>
			<path class="st0" d="M1999.5,1508c90.2-24.1,183,29.6,207,119.8c24.1,90.2-29.6,183-119.8,207c-90.2,24.1-183-29.6-207-119.8
				C1855.6,1624.6,1909.2,1532.1,1999.5,1508L1999.5,1508z"/>
			<path class="st0" d="M2347.2,3158.4l-685.3,469.2C1052.2,4044.8,417.6,3125,1028,2707l697.6-477.5L2347.2,3158.4L2347.2,3158.4z"
				/>
			<path class="st1" d="M2276.7,3101.1l-637.7,430.3c-320.4,216.3-646.1,4.8-728.1-273.9c121.3,225.9,406,365,687.4,175.3
				l620.2-418.3L2276.7,3101.1L2276.7,3101.1z"/>
			<path class="st2" d="M2670.5,3452.9l757,342c673.3,304.2,1137.1-712.7,462.9-1017.3L3120,2429.6L2670.5,3452.9L2670.5,3452.9z"/>
			<path class="st0" d="M2651.9,3325.8l781.2,370.5c349.3,165.7,637-108.4,668.9-397.3c-79.9,243.6-339.7,438.5-646.1,293
				l-762-361.8L2651.9,3325.8L2651.9,3325.8z"/>
			<path class="st0" d="M2621.1,2810.5c24.8-6.6,39.6-32.1,33-56.9c-6.6-24.8-32.1-39.6-56.9-32.8c-24.8,6.6-39.6,32.1-33,56.9
				C2570.8,2802.4,2596.3,2817,2621.1,2810.5z"/>
			<path class="st2" d="M2737.2,2667.8c23.2-6.2,37.1-30,30.8-53.3c-6.2-23.2-30-37.1-53.3-30.8c-23.2,6.2-37.1,30-30.8,53.3
				S2714,2674,2737.2,2667.8L2737.2,2667.8z"/>
			<path class="st2" d="M2755.5,2377.3c23.2-6.2,37.1-30,30.8-53.3c-6.2-23.2-30-37.1-53.3-30.8c-23.2,6.2-37.1,30-30.8,53.3
				C2708.5,2369.8,2732.3,2383.6,2755.5,2377.3L2755.5,2377.3z"/>
			<path class="st0" d="M2547.4,2553.5c23.2-6.2,37.1-30,30.8-53.3c-6.2-23.2-30-37.1-53.3-30.8c-23.2,6.2-37.1,30-30.8,53.3
				C2500.2,2546,2524.1,2559.7,2547.4,2553.5z"/>
			<path class="st2" d="M2395.5,2712.2c23.2-6.2,37.1-30,30.8-53.3c-6.2-23.2-30-37.1-53.3-30.8c-23.2,6.2-37.1,30-30.8,53.3
				C2348.4,2704.7,2372.3,2718.4,2395.5,2712.2L2395.5,2712.2z"/>
			<path class="st0" d="M2300.1,2570.8c23.2-6.2,37.1-30,30.8-53.3c-6.2-23.2-30-37.1-53.3-30.8c-23.2,6.2-37.1,30-30.8,53.3
				C2253,2563.1,2276.9,2577,2300.1,2570.8z"/>
			<path class="st0" d="M2477.9,2319.9c23.2-6.2,37.1-30,30.8-53.3c-6.2-23.2-30-37.1-53.3-30.8c-23.2,6.2-37.1,30-30.8,53.3
				C2430.8,2312.2,2454.7,2326,2477.9,2319.9L2477.9,2319.9z"/>
			<path class="st2" d="M2411.4,2942.6c24.8-6.6,39.6-32.1,33-56.9c-6.6-24.8-32.1-39.6-56.9-32.8c-24.8,6.6-39.6,32.1-33,56.9
				C2361.1,2934.4,2386.6,2949.2,2411.4,2942.6z"/>
			<path class="st0" d="M2360.9,1396.2c47.3,94.2,52.8,203.3,21.9,290.3c-32.5,92-105.9,185.5-176.7,281.4
				c-119.8,162.1-250,335.6-293,554.9c-44.8,227.9,163.7,477.7,335.4,610.2c8,6.2,16,12.1,23.9,17.8c41.7,30.1,80.4,52.6,111.6,65.3
				c9.5-37.3-12.5-77.2-48.1-123c-97.4-125.5-296-294.2-227.5-566.9C2207,2134.3,2937.4,1686,2360.9,1396.2L2360.9,1396.2z"/>
			<path class="st2" d="M2848.4,1882.5c100.9-232.5,265-226.8,435.5-90.1c-97.2,183.7-240.7,213.3-422.4,132.8
				c108.8-75.8,233.1-132.8,368.6-131.1C3076.7,1779.2,2980.9,1811.9,2848.4,1882.5L2848.4,1882.5z"/>
			<path class="st2" d="M2766.8,1983.9c44.9,100-4.6,150.9-98.1,165.5c-30.5-84.5,2-139.1,80.6-173.9c-7.5,56.9-25.3,113.2-65.4,156
				C2733.2,2087,2750.7,2046.9,2766.8,1983.9L2766.8,1983.9z"/>
			<path class="st2" d="M2771.4,1930.1c-106.1-26.9-176.5-113.8-136.9-245.7c138.4,14.1,174.4,131.4,158.7,218.1
				c-61.9-52.6-111.1-100.8-144.1-185.3c41,138.4,106.8,176,213.6,250.5c182.4,127.1,331,318.5,331,510.7
				c0.2,192.1-114.8,382.3-264.3,590.6c-155.3,216.5-298.3,394.3-196,609.7c-156.7-63.8-248.6-198.1-213.6-337.4
				c103.6-414.2,648.9-593.8,465.1-1119.8C2952.7,2130.2,2889.1,2037.6,2771.4,1930.1L2771.4,1930.1z"/>
		</g>
	</g>
</g>
</svg>
